<svg width="40" height="40" viewBox="0 0 40 40" fill="none" xmlns="http://www.w3.org/2000/svg">
<rect x="0.5" y="0.5" width="39" height="39" rx="7.5" fill="#EBF5FF"/>
<rect x="0.5" y="0.5" width="39" height="39" rx="7.5" stroke="#1E3851"/>
<mask id="mask0_43_1556" style="mask-type:alpha" maskUnits="userSpaceOnUse" x="8" y="8" width="24" height="24">
<rect x="8" y="8" width="24" height="24" fill="#D9D9D9"/>
</mask>
<g mask="url(#mask0_43_1556)">
<path d="M20 27.35C22.0333 25.4833 23.5417 23.7875 24.525 22.2625C25.5083 20.7375 26 19.3833 26 18.2C26 16.3833 25.4208 14.8958 24.2625 13.7375C23.1042 12.5792 21.6833 12 20 12C18.3167 12 16.8958 12.5792 15.7375 13.7375C14.5792 14.8958 14 16.3833 14 18.2C14 19.3833 14.4917 20.7375 15.475 22.2625C16.4583 23.7875 17.9667 25.4833 20 27.35ZM20 29.325C19.7667 29.325 19.5333 29.2833 19.3 29.2C19.0667 29.1167 18.8583 28.9917 18.675 28.825C17.5917 27.825 16.6333 26.85 15.8 25.9C14.9667 24.95 14.2708 24.0292 13.7125 23.1375C13.1542 22.2458 12.7292 21.3875 12.4375 20.5625C12.1458 19.7375 12 18.95 12 18.2C12 15.7 12.8042 13.7083 14.4125 12.225C16.0208 10.7417 17.8833 10 20 10C22.1167 10 23.9792 10.7417 25.5875 12.225C27.1958 13.7083 28 15.7 28 18.2C28 18.95 27.8542 19.7375 27.5625 20.5625C27.2708 21.3875 26.8458 22.2458 26.2875 23.1375C25.7292 24.0292 25.0333 24.95 24.2 25.9C23.3667 26.85 22.4083 27.825 21.325 28.825C21.1417 28.9917 20.9333 29.1167 20.7 29.2C20.4667 29.2833 20.2333 29.325 20 29.325ZM20 20C20.55 20 21.0208 19.8042 21.4125 19.4125C21.8042 19.0208 22 18.55 22 18C22 17.45 21.8042 16.9792 21.4125 16.5875C21.0208 16.1958 20.55 16 20 16C19.45 16 18.9792 16.1958 18.5875 16.5875C18.1958 16.9792 18 17.45 18 18C18 18.55 18.1958 19.0208 18.5875 19.4125C18.9792 19.8042 19.45 20 20 20Z" fill="#1E3851"/>
</g>
</svg>
