<svg width="235" height="12" viewBox="0 0 235 12" fill="none" xmlns="http://www.w3.org/2000/svg">
<path d="M205.435 5.45681C200.715 5.45681 198.717 4.71048 195.399 3.47966C191.439 2.00896 186.017 0 176.028 0C166.051 0 160.628 2.00896 156.681 3.47966C153.363 4.71048 151.365 5.45681 146.656 5.45681C141.96 5.45681 139.961 4.71048 136.643 3.47966C132.696 2.00896 127.285 0 117.308 0C107.331 0 101.909 2.00896 97.9609 3.47966C94.643 4.71048 92.6454 5.45681 87.9484 5.45681C83.2514 5.45681 81.2653 4.71048 77.9596 3.47966C74.0003 2.00896 68.5893 0 58.6241 0C48.659 0 43.2602 2.01444 39.3123 3.48478C36.0189 4.71049 34.0205 5.45681 29.348 5.45681C24.6502 5.45681 22.6526 4.71048 19.3347 3.47966C15.3868 2.00896 9.97659 0 0 0V6.54356C4.69616 6.54356 6.69459 7.28952 10.0125 8.52034C13.9596 9.99141 19.3706 12 29.348 12C39.3123 12 44.7111 9.98592 48.659 8.51522C51.9532 7.28951 53.9508 6.54356 58.6241 6.54356C63.3211 6.54356 65.3073 7.28952 68.613 8.52034C72.5731 9.99141 77.9833 12 87.9484 12C97.925 12 103.336 9.99141 107.283 8.52034C110.602 7.28952 112.599 6.54356 117.308 6.54356C122.005 6.54356 124.002 7.28952 127.321 8.52034C131.269 9.99141 136.679 12 146.656 12C156.633 12 162.056 9.99141 166.003 8.52034C169.321 7.28952 171.319 6.54356 176.028 6.54356C180.749 6.54356 182.758 7.28952 186.077 8.52034C190.036 9.99141 195.458 12 205.435 12C215.425 12 220.847 9.99141 224.806 8.52034C228.124 7.28952 230.279 6.54356 235 6.54356V0C225.01 0 219.443 2.00896 215.483 3.47966C212.166 4.71048 210.156 5.45681 205.435 5.45681Z" fill="#FFCE48"/>
</svg>
