<svg width="198" height="68" viewBox="0 0 198 68" fill="none" xmlns="http://www.w3.org/2000/svg">
<g clip-path="url(#clip0_109_619)">
<rect width="187.136" height="52.0222" rx="26.0111" transform="matrix(0.996256 -0.0864492 0.0581979 0.998305 2.2666 16.0779)" fill="#FFEBB3"/>
<rect x="3.0293" y="7.4762" width="186" height="52" rx="26" fill="#FFCE48"/>
<path d="M41.7173 39.6042C40.864 39.6042 40.0746 39.4655 39.3493 39.1882C38.6346 38.9002 38.0106 38.5002 37.4773 37.9882C36.9546 37.4655 36.544 36.8575 36.2453 36.1642C35.9466 35.4709 35.7973 34.7082 35.7973 33.8762C35.7973 33.0442 35.9466 32.2815 36.2453 31.5882C36.544 30.8949 36.96 30.2922 37.4933 29.7802C38.0266 29.2575 38.6506 28.8575 39.3653 28.5802C40.0906 28.2922 40.88 28.1482 41.7333 28.1482C42.5973 28.1482 43.392 28.2975 44.1173 28.5962C44.8533 28.8842 45.4773 29.3162 45.9893 29.8922L44.9493 30.9002C44.5226 30.4522 44.0426 30.1215 43.5093 29.9082C42.976 29.6842 42.4053 29.5722 41.7973 29.5722C41.168 29.5722 40.5813 29.6789 40.0373 29.8922C39.504 30.1055 39.04 30.4042 38.6453 30.7882C38.2506 31.1722 37.9413 31.6309 37.7173 32.1642C37.504 32.6869 37.3973 33.2575 37.3973 33.8762C37.3973 34.4949 37.504 35.0709 37.7173 35.6042C37.9413 36.1269 38.2506 36.5802 38.6453 36.9642C39.04 37.3482 39.504 37.6469 40.0373 37.8602C40.5813 38.0735 41.168 38.1802 41.7973 38.1802C42.4053 38.1802 42.976 38.0735 43.5093 37.8602C44.0426 37.6362 44.5226 37.2949 44.9493 36.8362L45.9893 37.8442C45.4773 38.4202 44.8533 38.8575 44.1173 39.1562C43.392 39.4549 42.592 39.6042 41.7173 39.6042ZM51.3204 39.5722C50.4671 39.5722 49.7098 39.3855 49.0484 39.0122C48.3871 38.6389 47.8644 38.1269 47.4804 37.4762C47.0964 36.8149 46.9044 36.0682 46.9044 35.2362C46.9044 34.3935 47.0964 33.6469 47.4804 32.9962C47.8644 32.3455 48.3871 31.8389 49.0484 31.4762C49.7098 31.1029 50.4671 30.9162 51.3204 30.9162C52.1631 30.9162 52.9151 31.1029 53.5764 31.4762C54.2484 31.8389 54.7711 32.3455 55.1444 32.9962C55.5284 33.6362 55.7204 34.3829 55.7204 35.2362C55.7204 36.0789 55.5284 36.8255 55.1444 37.4762C54.7711 38.1269 54.2484 38.6389 53.5764 39.0122C52.9151 39.3855 52.1631 39.5722 51.3204 39.5722ZM51.3204 38.2282C51.8644 38.2282 52.3498 38.1055 52.7764 37.8602C53.2138 37.6149 53.5551 37.2682 53.8004 36.8202C54.0458 36.3615 54.1684 35.8335 54.1684 35.2362C54.1684 34.6282 54.0458 34.1055 53.8004 33.6682C53.5551 33.2202 53.2138 32.8735 52.7764 32.6282C52.3498 32.3829 51.8644 32.2602 51.3204 32.2602C50.7764 32.2602 50.2911 32.3829 49.8644 32.6282C49.4378 32.8735 49.0964 33.2202 48.8404 33.6682C48.5844 34.1055 48.4564 34.6282 48.4564 35.2362C48.4564 35.8335 48.5844 36.3615 48.8404 36.8202C49.0964 37.2682 49.4378 37.6149 49.8644 37.8602C50.2911 38.1055 50.7764 38.2282 51.3204 38.2282ZM62.3727 30.9162C63.066 30.9162 63.674 31.0495 64.1967 31.3162C64.73 31.5829 65.146 31.9882 65.4447 32.5322C65.7433 33.0762 65.8927 33.7642 65.8927 34.5962V39.4762H64.3567V34.7722C64.3567 33.9509 64.154 33.3322 63.7487 32.9162C63.354 32.5002 62.794 32.2922 62.0687 32.2922C61.5247 32.2922 61.05 32.3989 60.6447 32.6122C60.2393 32.8255 59.9247 33.1402 59.7007 33.5562C59.4873 33.9722 59.3807 34.4895 59.3807 35.1082V39.4762H57.8447V30.9962H59.3167V33.2842L59.0767 32.6762C59.354 32.1215 59.7807 31.6895 60.3567 31.3802C60.9327 31.0709 61.6047 30.9162 62.3727 30.9162ZM71.6473 39.5722C70.794 39.5722 70.1326 39.3429 69.6633 38.8842C69.194 38.4255 68.9593 37.7695 68.9593 36.9162V29.1402H70.4953V36.8522C70.4953 37.3109 70.6073 37.6629 70.8313 37.9082C71.066 38.1535 71.3966 38.2762 71.8233 38.2762C72.3033 38.2762 72.7033 38.1429 73.0233 37.8762L73.5033 38.9802C73.2686 39.1829 72.986 39.3322 72.6553 39.4282C72.3353 39.5242 71.9993 39.5722 71.6473 39.5722ZM67.5193 32.2602V30.9962H72.9273V32.2602H67.5193ZM80.6243 39.4762V37.6842L80.5443 37.3482V34.2922C80.5443 33.6415 80.3523 33.1402 79.9683 32.7882C79.595 32.4255 79.0296 32.2442 78.2723 32.2442C77.771 32.2442 77.2803 32.3295 76.8003 32.5002C76.3203 32.6602 75.915 32.8789 75.5843 33.1562L74.9443 32.0042C75.3816 31.6522 75.9043 31.3855 76.5123 31.2042C77.131 31.0122 77.7763 30.9162 78.4483 30.9162C79.611 30.9162 80.507 31.1989 81.1363 31.7642C81.7656 32.3295 82.0803 33.1935 82.0803 34.3562V39.4762H80.6243ZM77.8403 39.5722C77.211 39.5722 76.6563 39.4655 76.1763 39.2522C75.707 39.0389 75.3443 38.7455 75.0883 38.3722C74.8323 37.9882 74.7043 37.5562 74.7043 37.0762C74.7043 36.6175 74.811 36.2015 75.0243 35.8282C75.2483 35.4549 75.6056 35.1562 76.0963 34.9322C76.5976 34.7082 77.2696 34.5962 78.1123 34.5962H80.8003V35.7002H78.1763C77.4083 35.7002 76.891 35.8282 76.6243 36.0842C76.3576 36.3402 76.2243 36.6495 76.2243 37.0122C76.2243 37.4282 76.3896 37.7642 76.7203 38.0202C77.051 38.2655 77.5096 38.3882 78.0963 38.3882C78.6723 38.3882 79.1736 38.2602 79.6003 38.0042C80.0376 37.7482 80.3523 37.3749 80.5443 36.8842L80.8483 37.9402C80.6456 38.4415 80.2883 38.8415 79.7763 39.1402C79.2643 39.4282 78.619 39.5722 77.8403 39.5722ZM88.6188 39.5722C87.7548 39.5722 86.9815 39.3855 86.2988 39.0122C85.6268 38.6389 85.0988 38.1269 84.7148 37.4762C84.3308 36.8255 84.1388 36.0789 84.1388 35.2362C84.1388 34.3935 84.3308 33.6469 84.7148 32.9962C85.0988 32.3455 85.6268 31.8389 86.2988 31.4762C86.9815 31.1029 87.7548 30.9162 88.6188 30.9162C89.3868 30.9162 90.0695 31.0709 90.6668 31.3802C91.2748 31.6789 91.7441 32.1269 92.0748 32.7242L90.9068 33.4762C90.6295 33.0602 90.2881 32.7562 89.8828 32.5642C89.4881 32.3615 89.0615 32.2602 88.6028 32.2602C88.0481 32.2602 87.5521 32.3829 87.1148 32.6282C86.6775 32.8735 86.3308 33.2202 86.0748 33.6682C85.8188 34.1055 85.6908 34.6282 85.6908 35.2362C85.6908 35.8442 85.8188 36.3722 86.0748 36.8202C86.3308 37.2682 86.6775 37.6149 87.1148 37.8602C87.5521 38.1055 88.0481 38.2282 88.6028 38.2282C89.0615 38.2282 89.4881 38.1322 89.8828 37.9402C90.2881 37.7375 90.6295 37.4282 90.9068 37.0122L92.0748 37.7482C91.7441 38.3349 91.2748 38.7882 90.6668 39.1082C90.0695 39.4175 89.3868 39.5722 88.6188 39.5722ZM97.0848 39.5722C96.2315 39.5722 95.5701 39.3429 95.1008 38.8842C94.6315 38.4255 94.3968 37.7695 94.3968 36.9162V29.1402H95.9328V36.8522C95.9328 37.3109 96.0448 37.6629 96.2688 37.9082C96.5035 38.1535 96.8341 38.2762 97.2608 38.2762C97.7408 38.2762 98.1408 38.1429 98.4608 37.8762L98.9408 38.9802C98.7061 39.1829 98.4235 39.3322 98.0928 39.4282C97.7728 39.5242 97.4368 39.5722 97.0848 39.5722ZM92.9568 32.2602V30.9962H98.3648V32.2602H92.9568ZM109.959 39.6042C108.487 39.6042 107.329 39.1829 106.487 38.3402C105.644 37.4975 105.223 36.2655 105.223 34.6442V28.2762H106.823V34.5802C106.823 35.8282 107.095 36.7402 107.639 37.3162C108.193 37.8922 108.972 38.1802 109.975 38.1802C110.988 38.1802 111.767 37.8922 112.311 37.3162C112.865 36.7402 113.143 35.8282 113.143 34.5802V28.2762H114.695V34.6442C114.695 36.2655 114.273 37.4975 113.431 38.3402C112.599 39.1829 111.441 39.6042 109.959 39.6042ZM120.183 39.5722C119.479 39.5722 118.807 39.4762 118.167 39.2842C117.538 39.0922 117.042 38.8575 116.679 38.5802L117.319 37.3642C117.682 37.6095 118.13 37.8175 118.663 37.9882C119.196 38.1589 119.74 38.2442 120.295 38.2442C121.01 38.2442 121.522 38.1429 121.831 37.9402C122.151 37.7375 122.311 37.4549 122.311 37.0922C122.311 36.8255 122.215 36.6175 122.023 36.4682C121.831 36.3189 121.575 36.2069 121.255 36.1322C120.946 36.0575 120.599 35.9935 120.215 35.9402C119.831 35.8762 119.447 35.8015 119.063 35.7162C118.679 35.6202 118.327 35.4922 118.007 35.3322C117.687 35.1615 117.431 34.9322 117.239 34.6442C117.047 34.3455 116.951 33.9509 116.951 33.4602C116.951 32.9482 117.095 32.5002 117.383 32.1162C117.671 31.7322 118.076 31.4389 118.599 31.2362C119.132 31.0229 119.762 30.9162 120.487 30.9162C121.042 30.9162 121.602 30.9855 122.167 31.1242C122.743 31.2522 123.212 31.4389 123.575 31.6842L122.919 32.9002C122.535 32.6442 122.135 32.4682 121.719 32.3722C121.303 32.2762 120.887 32.2282 120.471 32.2282C119.799 32.2282 119.298 32.3402 118.967 32.5642C118.636 32.7775 118.471 33.0549 118.471 33.3962C118.471 33.6842 118.567 33.9082 118.759 34.0682C118.962 34.2175 119.218 34.3349 119.527 34.4202C119.847 34.5055 120.199 34.5802 120.583 34.6442C120.967 34.6975 121.351 34.7722 121.735 34.8682C122.119 34.9535 122.466 35.0762 122.775 35.2362C123.095 35.3962 123.351 35.6202 123.543 35.9082C123.746 36.1962 123.847 36.5802 123.847 37.0602C123.847 37.5722 123.698 38.0149 123.399 38.3882C123.1 38.7615 122.679 39.0549 122.135 39.2682C121.591 39.4709 120.94 39.5722 120.183 39.5722Z" fill="#333333"/>
<mask id="mask0_109_619" style="mask-type:alpha" maskUnits="userSpaceOnUse" x="141" y="25" width="17" height="17">
<rect x="141.029" y="25.4762" width="16" height="16" fill="#D9D9D9"/>
</mask>
<g mask="url(#mask0_109_619)">
<path d="M151.796 34.1429H144.362C144.174 34.1429 144.015 34.079 143.887 33.9512C143.76 33.8235 143.696 33.6651 143.696 33.4762C143.696 33.2874 143.76 33.129 143.887 33.0012C144.015 32.8735 144.174 32.8096 144.362 32.8096H151.796L149.896 30.9096C149.762 30.7762 149.699 30.6207 149.704 30.4429C149.71 30.2651 149.774 30.1096 149.896 29.9762C150.029 29.8429 150.187 29.7735 150.371 29.7679C150.554 29.7624 150.712 29.8262 150.846 29.9596L153.896 33.0096C153.962 33.0762 154.01 33.1485 154.037 33.2262C154.065 33.304 154.079 33.3874 154.079 33.4762C154.079 33.5651 154.065 33.6485 154.037 33.7262C154.01 33.804 153.962 33.8762 153.896 33.9429L150.846 36.9929C150.712 37.1262 150.554 37.1901 150.371 37.1846C150.187 37.179 150.029 37.1096 149.896 36.9762C149.774 36.8429 149.71 36.6874 149.704 36.5096C149.699 36.3318 149.762 36.1762 149.896 36.0429L151.796 34.1429Z" fill="#333333"/>
</g>
<rect x="0.431403" y="0.524779" width="186.263" height="51.1209" rx="25.5604" transform="matrix(0.998271 0.0587765 -0.135464 0.990782 7.13238 2.69591)" stroke="#BD9526"/>
</g>
<defs>
<clipPath id="clip0_109_619">
<rect width="198" height="68" fill="white"/>
</clipPath>
</defs>
</svg>
