<svg width="40" height="40" viewBox="0 0 40 40" fill="none" xmlns="http://www.w3.org/2000/svg">
<rect x="0.5" y="0.5" width="39" height="39" rx="7.5" fill="#EBF5FF"/>
<rect x="0.5" y="0.5" width="39" height="39" rx="7.5" stroke="#1E3851"/>
<mask id="mask0_43_1564" style="mask-type:alpha" maskUnits="userSpaceOnUse" x="8" y="8" width="24" height="24">
<rect x="8" y="8" width="24" height="24" fill="#D9D9D9"/>
</mask>
<g mask="url(#mask0_43_1564)">
<path d="M12 28C11.45 28 10.9792 27.8042 10.5875 27.4125C10.1958 27.0208 10 26.55 10 26V14C10 13.45 10.1958 12.9792 10.5875 12.5875C10.9792 12.1958 11.45 12 12 12H28C28.55 12 29.0208 12.1958 29.4125 12.5875C29.8042 12.9792 30 13.45 30 14V26C30 26.55 29.8042 27.0208 29.4125 27.4125C29.0208 27.8042 28.55 28 28 28H12ZM28 16L20.525 20.675C20.4417 20.725 20.3542 20.7625 20.2625 20.7875C20.1708 20.8125 20.0833 20.825 20 20.825C19.9167 20.825 19.8292 20.8125 19.7375 20.7875C19.6458 20.7625 19.5583 20.725 19.475 20.675L12 16V26H28V16ZM20 19L28 14H12L20 19ZM12 16.25V14.775V14.8V14.7875V16.25Z" fill="#1E3851"/>
</g>
</svg>
