<svg width="126" height="63" viewBox="0 0 126 63" fill="none" xmlns="http://www.w3.org/2000/svg">
<path fill-rule="evenodd" clip-rule="evenodd" d="M0 63H126V62.5406H77.0381L125.935 59.9836L125.896 59.2497L76.9967 61.8086L125.694 56.6987L125.616 55.9687L76.9189 61.0767L125.282 53.4285L125.17 52.7055L76.8095 60.3555L124.699 50.1879L124.547 49.4687L76.6548 59.6344L123.948 46.9817L123.758 46.2733L76.4656 58.9271L123.031 43.8178L122.805 43.1202L76.2341 58.2285L121.949 40.7069L121.685 40.0212L75.974 57.5428L120.701 37.6581L120.407 36.9862L75.6725 56.8729L119.299 34.6772L118.965 34.021L75.3385 56.2196L117.739 31.773L117.38 31.1365L74.969 55.587L116.038 28.9544L115.638 28.3385L74.57 54.9682L114.188 26.2292L113.753 25.6351L74.1394 54.373L112.191 23.6044L111.73 23.0339L73.6773 53.8044L110.065 21.0889L109.576 20.5438L73.1817 53.2593L107.808 18.6854L107.287 18.1679L72.6625 52.7399L105.426 16.406L104.885 15.915L72.1167 52.2509L102.931 14.2524L102.361 13.788L71.5481 51.7876L100.325 12.2307L99.7307 11.7998L70.9482 51.3577L97.6203 10.3516L97.0035 9.95119L70.3333 50.9572L94.8182 8.61224L94.1807 8.24625L69.6969 50.5903L91.9265 7.02535L91.2723 6.69185L69.0416 50.2577L88.9598 5.58999L88.2898 5.2909L68.3727 49.9606L85.9252 4.31301L85.2385 4.04835L67.6859 49.698L82.8186 3.19344L82.1181 2.96715L66.9883 49.4687L79.6638 2.2411L78.9505 2.04829L66.279 49.2818L76.4558 1.45112L75.7395 1.29959L65.5567 49.1293L73.2192 0.833269L72.4931 0.71915L64.8335 49.0142L69.9501 0.38466L69.2209 0.306929L64.1025 48.9394L66.6632 0.106253L65.9311 0.0678829L63.3695 48.9011V0H62.6315V48.8932L60.0669 0.0678829L59.3377 0.106253L61.8984 48.9296L56.777 0.306929L56.0519 0.383669L61.1674 49.0093L53.5089 0.71915L52.7808 0.833269L60.4442 49.1254L50.2615 1.29959L49.5432 1.45112L59.722 49.2789L47.0495 2.04829L46.3411 2.24011L59.0116 49.4668L43.8828 2.96715L43.1814 3.19344L58.315 49.698L40.7654 4.04835L40.0748 4.31103L57.6283 49.9587L37.7101 5.2909L37.0412 5.58999L56.9554 50.2577L34.7258 6.68987L34.0726 7.02535L56.3021 50.5883L31.8192 8.24625L31.1827 8.61026L55.6637 50.9562L28.9974 9.95119L28.3777 10.3506L55.0479 51.3557L26.2673 11.7998L25.6711 12.2297L54.4567 51.7876L23.6385 13.788L23.0651 14.2504L53.8843 52.249L21.1202 15.915L20.5704 16.405L53.3375 52.7399L18.7132 18.1679L18.191 18.6854L52.8183 53.2593L16.4264 20.5438L15.9337 21.0869L52.3236 53.8044L14.2706 23.0339L13.8075 23.6035L51.8616 54.373L12.2469 25.6351L11.8133 26.2273L51.431 54.9702L10.3631 28.3385L9.96303 28.9544L51.03 55.5831L8.62109 31.1365L8.25456 31.7711L50.6615 56.2196L7.03188 34.021L6.69782 34.6752L50.3275 56.8729L5.59631 36.9862L5.2978 37.6562L50.026 57.5428L4.31548 40.0212L4.05046 40.705L49.7639 58.2285L3.19821 43.1202L2.96765 43.8178L49.5353 58.9271L2.24247 46.2733L2.04835 46.9817L49.3481 59.6344L1.45325 49.4687L1.29761 50.1879L49.1954 60.3555L0.829576 52.7055L0.720248 53.4285L49.0821 61.0786L0.384269 55.9687L0.306393 56.6987L49.0033 61.8086L0.103434 59.2497L0.0669915 59.9836L48.9658 62.5406H0V63Z" fill="#FFCE48"/>
</svg>
